<svg width="30" height="30" viewBox="0 0 30 30" fill="none" xmlns="http://www.w3.org/2000/svg">
<path fill-rule="evenodd" clip-rule="evenodd" d="M15 0C6.71573 0 0 6.71573 0 15C0 17.1569 0.455262 19.2076 1.27494 21.061L9.06678 6.05991L16.1481 19.693V6.05991H23.9259L23.9259 6.05993C23.9309 6.05991 23.9358 6.05991 23.9408 6.05991C25.8428 6.05991 27.5204 7.02086 28.5145 8.48375C26.0894 3.46332 20.9491 0 15 0ZM29.4178 10.8475C29.4501 11.089 29.4667 11.3355 29.4667 11.5858C29.4667 14.2251 27.6164 16.4322 25.1422 16.9808L28.5947 21.3476C29.4963 19.4199 30 17.2688 30 15C30 13.5594 29.7969 12.1662 29.4178 10.8475ZM1.98362 22.4599H16.1481H17.5853H28.0164C25.4286 26.9655 20.5687 30 15 30C9.43135 30 4.57144 26.9655 1.98362 22.4599Z" fill="#01996D"/>
</svg>
