<svg width="110" height="23" viewBox="0 0 110 23" fill="none" xmlns="http://www.w3.org/2000/svg">
<path d="M14.055 13.5L12.03 7.515C11.88 7.135 11.72 6.69 11.55 6.18C11.38 5.66 11.21 5.1 11.04 4.5C10.89 5.11 10.73 5.675 10.56 6.195C10.39 6.715 10.23 7.165 10.08 7.545L8.07 13.5H14.055ZM22.11 21.855H18.18C17.74 21.855 17.385 21.755 17.115 21.555C16.845 21.345 16.64 21.08 16.5 20.76L15.21 16.95H6.9L5.61 20.76C5.5 21.04 5.3 21.295 5.01 21.525C4.73 21.745 4.38 21.855 3.96 21.855H0L8.46 0H13.65L22.11 21.855Z" fill="white"/>
<path d="M40.3359 21.855H35.6859V9.735H32.8659C32.7359 11.595 32.5409 13.19 32.2809 14.52C32.0209 15.85 31.7109 16.975 31.3509 17.895C31.0009 18.805 30.6059 19.54 30.1659 20.1C29.7259 20.65 29.2559 21.075 28.7559 21.375C28.2659 21.665 27.7509 21.855 27.2109 21.945C26.6809 22.045 26.1409 22.095 25.5909 22.095C24.9009 22.095 24.4109 22.035 24.1209 21.915C23.8409 21.805 23.7009 21.65 23.7009 21.45V18.66H24.6759C24.9959 18.66 25.3109 18.62 25.6209 18.54C25.9309 18.45 26.2309 18.265 26.5209 17.985C26.8109 17.695 27.0859 17.28 27.3459 16.74C27.6059 16.19 27.8409 15.46 28.0509 14.55C28.2709 13.63 28.4609 12.5 28.6209 11.16C28.7909 9.81 28.9259 8.19 29.0259 6.3H40.3359V21.855Z" fill="white"/>
<path d="M58.0465 6.3V21.855H53.3965V13.935C53.3965 13.675 53.4115 13.395 53.4415 13.095C53.4715 12.785 53.5115 12.47 53.5615 12.15C53.3215 12.69 53.0665 13.145 52.7965 13.515C52.7765 13.535 52.6915 13.655 52.5415 13.875C52.4015 14.095 52.2165 14.38 51.9865 14.73C51.7665 15.07 51.5115 15.455 51.2215 15.885C50.9415 16.315 50.6515 16.755 50.3515 17.205C49.6515 18.255 48.8665 19.44 47.9965 20.76C47.9065 20.89 47.8015 21.025 47.6815 21.165C47.5715 21.295 47.4465 21.415 47.3065 21.525C47.1665 21.625 47.0165 21.71 46.8565 21.78C46.6965 21.84 46.5265 21.87 46.3465 21.87H43.4965V6.315H48.1465V14.235C48.1465 14.485 48.1315 14.765 48.1015 15.075C48.0715 15.385 48.0315 15.7 47.9815 16.02C48.2215 15.48 48.4765 15.025 48.7465 14.655C48.7565 14.635 48.8365 14.515 48.9865 14.295C49.1365 14.075 49.3215 13.795 49.5415 13.455C49.7715 13.105 50.0265 12.715 50.3065 12.285C50.5965 11.855 50.8915 11.415 51.1915 10.965C51.8915 9.915 52.6765 8.73 53.5465 7.41C53.6365 7.28 53.7365 7.15 53.8465 7.02C53.9665 6.88 54.0965 6.76 54.2365 6.66C54.3765 6.55 54.5265 6.465 54.6865 6.405C54.8465 6.335 55.0165 6.3 55.1965 6.3H58.0465Z" fill="white"/>
<path d="M67.8818 18.795C68.4618 18.795 68.9218 18.64 69.2618 18.33C69.6018 18.01 69.7718 17.58 69.7718 17.04C69.7718 16.82 69.7468 16.61 69.6968 16.41C69.6568 16.21 69.5668 16.035 69.4268 15.885C69.2968 15.735 69.1068 15.62 68.8568 15.54C68.6068 15.45 68.2818 15.405 67.8818 15.405H65.6018V18.795H67.8818ZM65.6018 9.21V12.645H67.5668C68.1368 12.645 68.6018 12.475 68.9618 12.135C69.3218 11.785 69.5018 11.34 69.5018 10.8C69.5018 10.61 69.4718 10.42 69.4118 10.23C69.3518 10.04 69.2468 9.87 69.0968 9.72C68.9468 9.57 68.7468 9.45 68.4968 9.36C68.2468 9.26 67.9368 9.21 67.5668 9.21H65.6018ZM67.7018 6.3C68.7018 6.3 69.5718 6.395 70.3118 6.585C71.0518 6.775 71.6618 7.04 72.1418 7.38C72.6318 7.72 72.9918 8.125 73.2218 8.595C73.4618 9.055 73.5818 9.56 73.5818 10.11C73.5818 10.45 73.5368 10.8 73.4468 11.16C73.3668 11.51 73.2218 11.85 73.0118 12.18C72.8018 12.5 72.5118 12.795 72.1418 13.065C71.7818 13.325 71.3168 13.535 70.7468 13.695C71.2168 13.805 71.6518 13.96 72.0518 14.16C72.4618 14.36 72.8118 14.605 73.1018 14.895C73.4018 15.185 73.6318 15.525 73.7918 15.915C73.9618 16.295 74.0468 16.73 74.0468 17.22C74.0468 18.05 73.8718 18.76 73.5218 19.35C73.1718 19.93 72.7068 20.405 72.1268 20.775C71.5568 21.145 70.9018 21.42 70.1618 21.6C69.4318 21.77 68.6818 21.855 67.9118 21.855H61.1918V6.3H67.7018Z" fill="white"/>
<path d="M90.9762 6.3V21.855H86.3262V13.935C86.3262 13.675 86.3412 13.395 86.3712 13.095C86.4012 12.785 86.4412 12.47 86.4912 12.15C86.2512 12.69 85.9962 13.145 85.7262 13.515C85.7062 13.535 85.6212 13.655 85.4712 13.875C85.3312 14.095 85.1462 14.38 84.9162 14.73C84.6962 15.07 84.4412 15.455 84.1512 15.885C83.8712 16.315 83.5812 16.755 83.2812 17.205C82.5812 18.255 81.7962 19.44 80.9262 20.76C80.8362 20.89 80.7312 21.025 80.6112 21.165C80.5012 21.295 80.3762 21.415 80.2362 21.525C80.0962 21.625 79.9462 21.71 79.7862 21.78C79.6262 21.84 79.4562 21.87 79.2762 21.87H76.4262V6.315H81.0762V14.235C81.0762 14.485 81.0612 14.765 81.0312 15.075C81.0012 15.385 80.9612 15.7 80.9112 16.02C81.1512 15.48 81.4062 15.025 81.6762 14.655C81.6862 14.635 81.7662 14.515 81.9162 14.295C82.0662 14.075 82.2512 13.795 82.4712 13.455C82.7012 13.105 82.9562 12.715 83.2362 12.285C83.5262 11.855 83.8212 11.415 84.1212 10.965C84.8212 9.915 85.6062 8.73 86.4762 7.41C86.5662 7.28 86.6662 7.15 86.7762 7.02C86.8962 6.88 87.0262 6.76 87.1662 6.66C87.3062 6.55 87.4562 6.465 87.6162 6.405C87.7762 6.335 87.9462 6.3 88.1262 6.3H90.9762Z" fill="white"/>
<path d="M101.291 6.06C102.471 6.06 103.546 6.245 104.516 6.615C105.486 6.985 106.316 7.515 107.006 8.205C107.706 8.895 108.246 9.735 108.626 10.725C109.016 11.705 109.211 12.81 109.211 14.04C109.211 15.28 109.016 16.4 108.626 17.4C108.246 18.39 107.706 19.235 107.006 19.935C106.316 20.625 105.486 21.16 104.516 21.54C103.546 21.91 102.471 22.095 101.291 22.095C100.101 22.095 99.0165 21.91 98.0365 21.54C97.0665 21.16 96.2265 20.625 95.5165 19.935C94.8165 19.235 94.2715 18.39 93.8815 17.4C93.5015 16.4 93.3115 15.28 93.3115 14.04C93.3115 12.81 93.5015 11.705 93.8815 10.725C94.2715 9.735 94.8165 8.895 95.5165 8.205C96.2265 7.515 97.0665 6.985 98.0365 6.615C99.0165 6.245 100.101 6.06 101.291 6.06ZM101.291 18.645C102.361 18.645 103.146 18.27 103.646 17.52C104.156 16.76 104.411 15.61 104.411 14.07C104.411 12.53 104.156 11.385 103.646 10.635C103.146 9.885 102.361 9.51 101.291 9.51C100.191 9.51 99.3865 9.885 98.8765 10.635C98.3665 11.385 98.1115 12.53 98.1115 14.07C98.1115 15.61 98.3665 16.76 98.8765 17.52C99.3865 18.27 100.191 18.645 101.291 18.645Z" fill="white"/>
</svg>
