<svg width="110" height="23" viewBox="0 0 110 23" fill="none" xmlns="http://www.w3.org/2000/svg">
<path d="M14.605 13.645L12.58 7.66002C12.43 7.28002 12.27 6.83502 12.1 6.32502C11.93 5.80502 11.76 5.24502 11.59 4.64502C11.44 5.25502 11.28 5.82002 11.11 6.34002C10.94 6.86002 10.78 7.31002 10.63 7.69002L8.61999 13.645H14.605ZM22.66 22H18.73C18.29 22 17.935 21.9 17.665 21.7C17.395 21.49 17.19 21.225 17.05 20.905L15.76 17.095H7.44999L6.15999 20.905C6.04999 21.185 5.84999 21.44 5.55999 21.67C5.27999 21.89 4.92999 22 4.50999 22H0.549988L9.00999 0.14502H14.2L22.66 22Z" fill="#01996D"/>
<path d="M40.8859 22H36.2359V9.88002H33.4159C33.2859 11.74 33.0909 13.335 32.8309 14.665C32.5709 15.995 32.2609 17.12 31.9009 18.04C31.5509 18.95 31.1559 19.685 30.7159 20.245C30.2759 20.795 29.8059 21.22 29.3059 21.52C28.8159 21.81 28.3009 22 27.7609 22.09C27.2309 22.19 26.6909 22.24 26.1409 22.24C25.4509 22.24 24.9609 22.18 24.6709 22.06C24.3909 21.95 24.2509 21.795 24.2509 21.595V18.805H25.2259C25.5459 18.805 25.8609 18.765 26.1709 18.685C26.4809 18.595 26.7809 18.41 27.0709 18.13C27.3609 17.84 27.6359 17.425 27.8959 16.885C28.1559 16.335 28.3909 15.605 28.6009 14.695C28.8209 13.775 29.0109 12.645 29.1709 11.305C29.3409 9.95502 29.4759 8.33502 29.5759 6.44502H40.8859V22Z" fill="#01996D"/>
<path d="M58.5965 6.44502V22H53.9465V14.08C53.9465 13.82 53.9615 13.54 53.9915 13.24C54.0215 12.93 54.0615 12.615 54.1115 12.295C53.8715 12.835 53.6165 13.29 53.3465 13.66C53.3265 13.68 53.2415 13.8 53.0915 14.02C52.9515 14.24 52.7665 14.525 52.5365 14.875C52.3165 15.215 52.0615 15.6 51.7715 16.03C51.4915 16.46 51.2015 16.9 50.9015 17.35C50.2015 18.4 49.4165 19.585 48.5465 20.905C48.4565 21.035 48.3515 21.17 48.2315 21.31C48.1215 21.44 47.9965 21.56 47.8565 21.67C47.7165 21.77 47.5665 21.855 47.4065 21.925C47.2465 21.985 47.0765 22.015 46.8965 22.015H44.0465V6.46002H48.6965V14.38C48.6965 14.63 48.6815 14.91 48.6515 15.22C48.6215 15.53 48.5815 15.845 48.5315 16.165C48.7715 15.625 49.0265 15.17 49.2965 14.8C49.3065 14.78 49.3865 14.66 49.5365 14.44C49.6865 14.22 49.8715 13.94 50.0915 13.6C50.3215 13.25 50.5765 12.86 50.8565 12.43C51.1465 12 51.4415 11.56 51.7415 11.11C52.4415 10.06 53.2265 8.87502 54.0965 7.55502C54.1865 7.42502 54.2865 7.29502 54.3965 7.16502C54.5165 7.02502 54.6465 6.90502 54.7865 6.80502C54.9265 6.69502 55.0765 6.61002 55.2365 6.55002C55.3965 6.48002 55.5665 6.44502 55.7465 6.44502H58.5965Z" fill="#01996D"/>
<path d="M68.4318 18.94C69.0118 18.94 69.4718 18.785 69.8118 18.475C70.1518 18.155 70.3218 17.725 70.3218 17.185C70.3218 16.965 70.2968 16.755 70.2468 16.555C70.2068 16.355 70.1168 16.18 69.9768 16.03C69.8468 15.88 69.6568 15.765 69.4068 15.685C69.1568 15.595 68.8318 15.55 68.4318 15.55H66.1518V18.94H68.4318ZM66.1518 9.35502V12.79H68.1168C68.6868 12.79 69.1518 12.62 69.5118 12.28C69.8718 11.93 70.0518 11.485 70.0518 10.945C70.0518 10.755 70.0218 10.565 69.9618 10.375C69.9018 10.185 69.7968 10.015 69.6468 9.86502C69.4968 9.71502 69.2968 9.59502 69.0468 9.50502C68.7968 9.40502 68.4868 9.35502 68.1168 9.35502H66.1518ZM68.2518 6.44502C69.2518 6.44502 70.1218 6.54002 70.8618 6.73002C71.6018 6.92002 72.2118 7.18502 72.6918 7.52502C73.1818 7.86502 73.5418 8.27002 73.7718 8.74002C74.0118 9.20002 74.1318 9.70502 74.1318 10.255C74.1318 10.595 74.0868 10.945 73.9968 11.305C73.9168 11.655 73.7718 11.995 73.5618 12.325C73.3518 12.645 73.0618 12.94 72.6918 13.21C72.3318 13.47 71.8668 13.68 71.2968 13.84C71.7668 13.95 72.2018 14.105 72.6018 14.305C73.0118 14.505 73.3618 14.75 73.6518 15.04C73.9518 15.33 74.1818 15.67 74.3418 16.06C74.5118 16.44 74.5968 16.875 74.5968 17.365C74.5968 18.195 74.4218 18.905 74.0718 19.495C73.7218 20.075 73.2568 20.55 72.6768 20.92C72.1068 21.29 71.4518 21.565 70.7118 21.745C69.9818 21.915 69.2318 22 68.4618 22H61.7418V6.44502H68.2518Z" fill="#01996D"/>
<path d="M91.5262 6.44502V22H86.8762V14.08C86.8762 13.82 86.8912 13.54 86.9212 13.24C86.9512 12.93 86.9912 12.615 87.0412 12.295C86.8012 12.835 86.5462 13.29 86.2762 13.66C86.2562 13.68 86.1712 13.8 86.0212 14.02C85.8812 14.24 85.6962 14.525 85.4662 14.875C85.2462 15.215 84.9912 15.6 84.7012 16.03C84.4212 16.46 84.1312 16.9 83.8312 17.35C83.1312 18.4 82.3462 19.585 81.4762 20.905C81.3862 21.035 81.2812 21.17 81.1612 21.31C81.0512 21.44 80.9262 21.56 80.7862 21.67C80.6462 21.77 80.4962 21.855 80.3362 21.925C80.1762 21.985 80.0062 22.015 79.8262 22.015H76.9762V6.46002H81.6262V14.38C81.6262 14.63 81.6112 14.91 81.5812 15.22C81.5512 15.53 81.5112 15.845 81.4612 16.165C81.7012 15.625 81.9562 15.17 82.2262 14.8C82.2362 14.78 82.3162 14.66 82.4662 14.44C82.6162 14.22 82.8012 13.94 83.0212 13.6C83.2512 13.25 83.5062 12.86 83.7862 12.43C84.0762 12 84.3712 11.56 84.6712 11.11C85.3712 10.06 86.1562 8.87502 87.0262 7.55502C87.1162 7.42502 87.2162 7.29502 87.3262 7.16502C87.4462 7.02502 87.5762 6.90502 87.7162 6.80502C87.8562 6.69502 88.0062 6.61002 88.1662 6.55002C88.3262 6.48002 88.4962 6.44502 88.6762 6.44502H91.5262Z" fill="#01996D"/>
<path d="M101.841 6.20502C103.021 6.20502 104.096 6.39002 105.066 6.76002C106.036 7.13002 106.866 7.66002 107.556 8.35002C108.256 9.04002 108.796 9.88002 109.176 10.87C109.566 11.85 109.761 12.955 109.761 14.185C109.761 15.425 109.566 16.545 109.176 17.545C108.796 18.535 108.256 19.38 107.556 20.08C106.866 20.77 106.036 21.305 105.066 21.685C104.096 22.055 103.021 22.24 101.841 22.24C100.651 22.24 99.5665 22.055 98.5865 21.685C97.6165 21.305 96.7765 20.77 96.0665 20.08C95.3665 19.38 94.8215 18.535 94.4315 17.545C94.0515 16.545 93.8615 15.425 93.8615 14.185C93.8615 12.955 94.0515 11.85 94.4315 10.87C94.8215 9.88002 95.3665 9.04002 96.0665 8.35002C96.7765 7.66002 97.6165 7.13002 98.5865 6.76002C99.5665 6.39002 100.651 6.20502 101.841 6.20502ZM101.841 18.79C102.911 18.79 103.696 18.415 104.196 17.665C104.706 16.905 104.961 15.755 104.961 14.215C104.961 12.675 104.706 11.53 104.196 10.78C103.696 10.03 102.911 9.65502 101.841 9.65502C100.741 9.65502 99.9365 10.03 99.4265 10.78C98.9165 11.53 98.6615 12.675 98.6615 14.215C98.6615 15.755 98.9165 16.905 99.4265 17.665C99.9365 18.415 100.741 18.79 101.841 18.79Z" fill="#01996D"/>
</svg>
