<svg width="81" height="81" viewBox="0 0 81 81" fill="none" xmlns="http://www.w3.org/2000/svg">
<path fill-rule="evenodd" clip-rule="evenodd" d="M0 40.4232C0 18.1342 18.1325 0 40.4232 0C62.7139 0 80.8464 18.1342 80.8464 40.4232C80.8464 62.7122 62.7139 80.8464 40.4232 80.8464C18.1325 80.8464 0 62.7122 0 40.4232ZM3.36856 40.4232C3.36856 60.8552 19.9911 77.4778 40.4232 77.4778C60.8552 77.4778 77.4778 60.8552 77.4778 40.4232C77.4778 19.9912 60.8552 3.36855 40.4232 3.36855C19.9911 3.36855 3.36856 19.9912 3.36856 40.4232ZM32.9135 23.8483L56.4937 39.007C56.9739 39.3163 57.2667 39.8508 57.2667 40.4232C57.2667 40.9956 56.9739 41.5303 56.4937 41.8394L32.9135 56.9981C32.6371 57.1774 32.3181 57.2663 32.0022 57.2663C31.7259 57.2663 31.4462 57.1973 31.1963 57.0607C30.6534 56.7646 30.3179 56.1987 30.3179 55.5819V25.2645C30.3179 24.6477 30.6534 24.0818 31.1963 23.7857C31.7292 23.493 32.397 23.5111 32.9135 23.8483ZM33.6864 28.3502V52.4962L52.4671 40.4232L33.6864 28.3502Z" fill="white"/>
</svg>
